<svg xmlns="http://www.w3.org/2000/svg" xmlns:xlink="http://www.w3.org/1999/xlink" width="972" height="1080" viewBox="0 0 972 1080">
  <defs>
    <clipPath id="clip-path">
      <rect id="Rectangle" width="972" height="1080" rx="12" fill="#eb9c7f" stroke="#e5e5ea" stroke-width="0.5" opacity="0.1"/>
    </clipPath>
  </defs>
  <g id="Overlay" clip-path="url(#clip-path)">
    <g id="Shapes" transform="translate(-202.008 -94.339)">
      <path id="Path_11981" data-name="Path 11981" d="M1914.992-15269.214c102.259-176.74,390.775-341.9,657.376-275.26s-164.344,307.151,65.738,368,346.949-159.379,525.9-20.291,138.778,349.64-58.434,433.675-216.139,152.577-114.512,190.261,118.165,100.471-79.048,138.139-157.039,86.928-157.039,86.928l-679.291-23.176s-21.912-263.7,0-396.972c21.914-133.3,215.473-246.292,182.6-339.02S1812.734-15092.45,1914.992-15269.214Z" transform="translate(-1898.748 15559.575)" fill="#1a1a1a" opacity="0.1" style="mix-blend-mode: overlay;isolation: isolate"/>
      <path id="Path_11982" data-name="Path 11982" d="M1930.6-15432.277c91.68-157.366,285.273-144.8,448.823-123.971s-83.023,319.954,125.131,374.612c208.153,54.675,313.883-143.159,475.781-18.209s125.553,309.758-52.864,385.248-208.155,143.168-142.074,166.606,145.379,98.905-33.04,132.748-142.073,78.1-142.073,78.1h-641.45s-19.825-251.552,0-371.3,234.385-263.775,184.516-373.193S1838.086-15273.5,1930.6-15432.277Z" transform="translate(-1769.921 15620.126)" fill="#1a1a1a" opacity="0.2" style="mix-blend-mode: overlay;isolation: isolate"/>
    </g>
  </g>
</svg>
